<?xml version="1.0" encoding="utf-8"?>
<!-- Generator: Adobe Illustrator 19.2.0, SVG Export Plug-In . SVG Version: 6.00 Build 0)  -->
<svg version="1.1" xmlns="http://www.w3.org/2000/svg" xmlns:xlink="http://www.w3.org/1999/xlink" x="0px" y="0px"
	 viewBox="0 0 200 200" style="enable-background:new 0 0 200 200;" xml:space="preserve">
<style type="text/css">
	.st0{fill:#BBDDEF;}
	.st1{fill:#FFFFFF;}
	.st2{fill:url(#SVGID_1_);}
	.st3{fill:#505050;}
	.st4{fill:url(#SVGID_2_);}
	.st5{display:none;}
	.st6{display:inline;}
	.st7{fill:url(#SVGID_3_);}
	.st8{fill:url(#SVGID_4_);}
	.st9{display:inline;fill:#FFFFFF;}
	.st10{display:inline;fill:url(#SVGID_5_);}
	.st11{display:inline;fill:url(#SVGID_6_);}
	.st12{fill:url(#SVGID_7_);}
	.st13{display:inline;fill:url(#complement_cadre_1_);}
</style>
<g id="Fond">
	<path class="st0" d="M188,200H12c-6.6,0-12-5.4-12-12V12C0,5.4,5.4,0,12,0h176c6.6,0,12,5.4,12,12v176C200,194.6,194.6,200,188,200
		z"/>
</g>
<g id="Image">
	<g>
		<rect id="fond_blanc_1_" x="30.7" y="42.8" class="st1" width="140" height="109.6"/>
		<linearGradient id="SVGID_1_" gradientUnits="userSpaceOnUse" x1="100.7858" y1="37.4732" x2="100.7858" y2="158.0494">
			<stop  offset="0" style="stop-color:#50AFE1"/>
			<stop  offset="1" style="stop-color:#0578C8"/>
		</linearGradient>
		<path class="st2" d="M178.2,40.3c-5,5-10,10-15,15c3,2,4.9,5.3,4.9,9v67.1c0,6.1-5.4,11.1-12.1,11.1H45.5c-6.7,0-12.1-5-12.1-11.1
			V64.2c0-6.1,5.4-11.1,12.1-11.1h54.2c3.9-12,8-14.9,9.4-15.5c0-0.1,0.1-0.1,0.1-0.2H32.1c-8.3,0-15,6.7-15,15V143
			c0,8.3,6.7,15,15,15h137.3c8.3,0,15-6.7,15-15V52.5C184.4,47.4,182,43,178.2,40.3z"/>
		<polygon class="st3" points="49.6,128.8 49.6,109 68.9,90.8 91.1,109 136.5,78.2 152,109 152,128.8 		"/>
	</g>
	
		<linearGradient id="SVGID_2_" gradientUnits="userSpaceOnUse" x1="1098.4265" y1="37.4732" x2="1098.4265" y2="158.0494" gradientTransform="matrix(-1 0 0 1 1199.2129 0)">
		<stop  offset="0" style="stop-color:#50AFE1"/>
		<stop  offset="1" style="stop-color:#0578C8"/>
	</linearGradient>
	<path class="st4" d="M23.4,40.3c5,5,10,10,15,15c-3,2-4.9,5.3-4.9,9v67.1c0,6.1,5.4,11.1,12.1,11.1H156c6.7,0,12.1-5,12.1-11.1
		V64.2c0-6.1-5.4-11.1-12.1-11.1H91.1c-3.9-12,2.7-14.9,1.4-15.5c0-0.1-0.1-0.1-0.1-0.2h77.1c8.3,0,15,6.7,15,15V143
		c0,8.3-6.7,15-15,15H32.1c-8.3,0-15-6.7-15-15V52.5C17.1,47.4,19.6,43,23.4,40.3z"/>
</g>
<g id="Upload" class="st5">
	<g class="st6">
		<g>
			<path class="st1" d="M151,142.5H49.5c-6.6,0-12-5.4-12-12v-57c0-6.6,5.4-12,12-12H151c6.6,0,12,5.4,12,12v57
				C163,137.1,157.6,142.5,151,142.5z"/>
			<linearGradient id="SVGID_3_" gradientUnits="userSpaceOnUse" x1="123.4351" y1="145.9253" x2="123.4351" y2="40.8568">
				<stop  offset="0" style="stop-color:#0578C8"/>
				<stop  offset="1" style="stop-color:#50AFE1"/>
			</linearGradient>
			<path class="st7" d="M123.4,76c-5.1,0-9.9,1.5-13.9,4.1c4.6,0.3,8.3,4.1,8.3,8.8c0,4.9-3.9,8.8-8.8,8.8c-4.3,0-7.9-3.1-8.7-7.2
				c-1.6,3.4-2.5,7.1-2.5,11.1c0,14.2,11.5,25.6,25.6,25.6c14.2,0,25.6-11.5,25.6-25.6C149.1,87.4,137.6,76,123.4,76z"/>
			<linearGradient id="SVGID_4_" gradientUnits="userSpaceOnUse" x1="97.811" y1="145.9253" x2="97.811" y2="40.8566">
				<stop  offset="0" style="stop-color:#0578C8"/>
				<stop  offset="1" style="stop-color:#50AFE1"/>
			</linearGradient>
			<path class="st8" d="M154.9,53H77.2v-6.5c0-2.4-1.4-4.3-3.2-4.3H53.5c-1.8,0-3.2,1.9-3.2,4.3V53h-9.5c-7.8,0-14.1,6.3-14.1,14.1
				v69.2c0,7.8,6.3,14.1,14.1,14.1h114.1c7.8,0,14.1-6.3,14.1-14.1V67.1C169,59.3,162.7,53,154.9,53z M67.2,121.6
				c0,6.6-5.3,11.9-11.9,11.9c-6.6,0-11.9-5.3-11.9-11.9V81.8c0-6.6,5.3-11.9,11.9-11.9c6.6,0,11.9,5.3,11.9,11.9V121.6z M123,136.1
				c-19,0-34.4-15.4-34.4-34.4c0-19,15.4-34.4,34.4-34.4c19,0,34.4,15.4,34.4,34.4C157.4,120.7,142,136.1,123,136.1z"/>
		</g>
		<path class="st3" d="M50,121.4c0,2.9,2.4,5.3,5.3,5.3l0,0c2.9,0,5.3-2.4,5.3-5.3V83.3c0-2.9-2.4-5.3-5.3-5.3l0,0
			c-2.9,0-5.3,2.4-5.3,5.3V121.4z"/>
	</g>
	<g class="st6">
		<path class="st3" d="M189,45.5L167.2,18c0,0-0.7-0.7-1.4-0.8c-0.7,0-1.4,0.8-1.4,0.8l-21.8,27.5c0,0-0.8,2.1,1.4,2.2h10v28
			c0,3.5,2.4,6.3,5.4,6.3h12.3c3,0,5.4-2.8,5.4-6.3v-28h10.4C189.8,47.5,189,45.5,189,45.5z"/>
	</g>
</g>
<g id="Images" class="st5">
	<rect id="fond_blanc" x="37.7" y="29.8" class="st9" width="140" height="109.6"/>
	<linearGradient id="SVGID_5_" gradientUnits="userSpaceOnUse" x1="106.8153" y1="23.1087" x2="106.8153" y2="143.6848">
		<stop  offset="0" style="stop-color:#50AFE1"/>
		<stop  offset="1" style="stop-color:#0578C8"/>
	</linearGradient>
	<path class="st10" d="M184.2,25.9c-5,5-10,10-15,15c3,2,4.9,5.3,4.9,9v67.1c0,6.1-5.4,11.1-12.1,11.1H51.6c-6.7,0-12.1-5-12.1-11.1
		V49.9c0-6.1,5.4-11.1,12.1-11.1h54.2c3.9-12,8-14.9,9.4-15.5c0-0.1,0.1-0.1,0.1-0.2H38.2c-8.3,0-15,6.7-15,15v90.6
		c0,8.3,6.7,15,15,15h137.3c8.3,0,15-6.7,15-15V38.1C190.5,33.1,188,28.6,184.2,25.9z"/>
	
		<linearGradient id="SVGID_6_" gradientUnits="userSpaceOnUse" x1="1092.3971" y1="23.1087" x2="1092.3971" y2="143.6848" gradientTransform="matrix(-1 0 0 1 1199.2129 0)">
		<stop  offset="0" style="stop-color:#50AFE1"/>
		<stop  offset="1" style="stop-color:#0578C8"/>
	</linearGradient>
	<path class="st11" d="M29.4,25.9c5,5,10,10,15,15c-3,2-4.9,5.3-4.9,9v67.1c0,6.1,5.4,11.1,12.1,11.1h110.5c6.7,0,12.1-5,12.1-11.1
		V49.9c0-6.1-5.4-11.1-12.1-11.1H97.1c-3.9-12,2.7-14.9,1.4-15.5c0-0.1-0.1-0.1-0.1-0.2h77.1c8.3,0,15,6.7,15,15v90.6
		c0,8.3-6.7,15-15,15H38.2c-8.3,0-15-6.7-15-15V38.1C23.2,33.1,25.6,28.6,29.4,25.9z"/>
	<path id="cadre_blanc" class="st9" d="M174.6,51.2c-5,5-10,10-15,15c3,2,4.9,5.3,4.9,9v67.1c0,6.1-5.4,11.1-12.1,11.1H42
		c-6.7,0-12.1-5-12.1-11.1V75.1C29.9,69,35.3,64,42,64h54.2c3.9-12,8-14.9,9.4-15.5c0-0.1,0.1-0.1,0.1-0.2H28.6c-8.3,0-15,6.7-15,15
		V154c0,8.3,6.7,15,15,15h137.3c8.3,0,15-6.7,15-15V63.4C180.9,58.3,178.4,53.9,174.6,51.2z"/>
	<path id="comp_cadre_blanc" class="st9" d="M19.9,51.2c5,5,10,10,15,15c-3,2-4.9,5.3-4.9,9v67.1c0,6.1,5.4,11.1,12.1,11.1h110.5
		c6.7,0,12.1-5,12.1-11.1V75.1c0-6.1-5.4-11.1-12.1-11.1H87.6c-3.9-12,2.7-14.9,1.4-15.5c0-0.1-0.1-0.1-0.1-0.2h77.1
		c8.3,0,15,6.7,15,15V154c0,8.3-6.7,15-15,15H28.6c-8.3,0-15-6.7-15-15V63.4C13.6,58.3,16.1,53.9,19.9,51.2z"/>
	<rect id="fond_blanc_2_" x="23.7" y="57.8" class="st9" width="140" height="109.6"/>
	<g id="cadre" class="st6">
		<linearGradient id="SVGID_7_" gradientUnits="userSpaceOnUse" x1="93.7428" y1="52.3152" x2="93.7428" y2="172.8913">
			<stop  offset="0" style="stop-color:#50AFE1"/>
			<stop  offset="1" style="stop-color:#0578C8"/>
		</linearGradient>
		<path class="st12" d="M171.1,55.1c-5,5-10,10-15,15c3,2,4.9,5.3,4.9,9v67.1c0,6.1-5.4,11.1-12.1,11.1H38.5
			c-6.7,0-12.1-5-12.1-11.1V79.1c0-6.1,5.4-11.1,12.1-11.1h54.2c3.9-12,8-14.9,9.4-15.5c0-0.1,0.1-0.1,0.1-0.2H25.1
			c-8.3,0-15,6.7-15,15v90.6c0,8.3,6.7,15,15,15h137.3c8.3,0,15-6.7,15-15V67.3C177.4,62.3,174.9,57.8,171.1,55.1z"/>
		<polygon class="st3" points="42.5,143.7 42.5,123.9 61.9,105.6 84.1,123.9 129.5,93 144.9,123.9 144.9,143.7 		"/>
	</g>
	
		<linearGradient id="complement_cadre_1_" gradientUnits="userSpaceOnUse" x1="1105.4695" y1="52.3152" x2="1105.4695" y2="172.8913" gradientTransform="matrix(-1 0 0 1 1199.2129 0)">
		<stop  offset="0" style="stop-color:#50AFE1"/>
		<stop  offset="1" style="stop-color:#0578C8"/>
	</linearGradient>
	<path id="complement_cadre" class="st13" d="M16.4,55.1c5,5,10,10,15,15c-3,2-4.9,5.3-4.9,9v67.1c0,6.1,5.4,11.1,12.1,11.1H149
		c6.7,0,12.1-5,12.1-11.1V79.1c0-6.1-5.4-11.1-12.1-11.1H84.1c-3.9-12,2.7-14.9,1.4-15.5c0-0.1-0.1-0.1-0.1-0.2h77.1
		c8.3,0,15,6.7,15,15v90.6c0,8.3-6.7,15-15,15H25.1c-8.3,0-15-6.7-15-15V67.3C10.1,62.3,12.6,57.8,16.4,55.1z"/>
</g>
</svg>