<?xml version="1.0" encoding="utf-8"?>
<!-- Generator: Adobe Illustrator 19.2.0, SVG Export Plug-In . SVG Version: 6.00 Build 0)  -->
<svg version="1.1" xmlns="http://www.w3.org/2000/svg" xmlns:xlink="http://www.w3.org/1999/xlink" x="0px" y="0px"
	 viewBox="0 0 200 200" style="enable-background:new 0 0 200 200;" xml:space="preserve">
<style type="text/css">
	.st0{fill:#BBDDEF;}
	.st1{fill:#FFFFFF;}
	.st2{fill:url(#SVGID_1_);}
	.st3{fill:url(#SVGID_2_);}
	.st4{fill:#505050;}
</style>
<g id="πœ_xBA_h_x5F_16">
	<path class="st0" d="M188,200H12c-6.6,0-12-5.4-12-12V12C0,5.4,5.4,0,12,0h176c6.6,0,12,5.4,12,12v176C200,194.6,194.6,200,188,200
		z"/>
	<path class="st1" d="M151,142.5H49.5c-6.6,0-12-5.4-12-12v-57c0-6.6,5.4-12,12-12H151c6.6,0,12,5.4,12,12v57
		C163,137.1,157.6,142.5,151,142.5z"/>
</g>
<g id="πœ_xBA_h_x5F_7">
	<g>
		<g>
			<linearGradient id="SVGID_1_" gradientUnits="userSpaceOnUse" x1="123.4351" y1="145.9253" x2="123.4351" y2="40.8568">
				<stop  offset="0" style="stop-color:#0578C8"/>
				<stop  offset="1" style="stop-color:#50AFE1"/>
			</linearGradient>
			<path class="st2" d="M123.4,76c-5.1,0-9.9,1.5-13.9,4.1c4.6,0.3,8.3,4.1,8.3,8.8c0,4.9-3.9,8.8-8.8,8.8c-4.3,0-7.9-3.1-8.7-7.2
				c-1.6,3.4-2.5,7.1-2.5,11.1c0,14.2,11.5,25.6,25.6,25.6c14.2,0,25.6-11.5,25.6-25.6C149.1,87.4,137.6,76,123.4,76z"/>
			<linearGradient id="SVGID_2_" gradientUnits="userSpaceOnUse" x1="97.811" y1="145.9253" x2="97.811" y2="40.8566">
				<stop  offset="0" style="stop-color:#0578C8"/>
				<stop  offset="1" style="stop-color:#50AFE1"/>
			</linearGradient>
			<path class="st3" d="M154.9,53H77.2v-6.5c0-2.4-1.4-4.3-3.2-4.3H53.5c-1.8,0-3.2,1.9-3.2,4.3V53h-9.5c-7.8,0-14.1,6.3-14.1,14.1
				v69.2c0,7.8,6.3,14.1,14.1,14.1h114.1c7.8,0,14.1-6.3,14.1-14.1V67.1C169,59.3,162.7,53,154.9,53z M67.2,121.6
				c0,6.6-5.3,11.9-11.9,11.9c-6.6,0-11.9-5.3-11.9-11.9V81.8c0-6.6,5.3-11.9,11.9-11.9c6.6,0,11.9,5.3,11.9,11.9V121.6z M123,136.1
				c-19,0-34.4-15.4-34.4-34.4c0-19,15.4-34.4,34.4-34.4c19,0,34.4,15.4,34.4,34.4C157.4,120.7,142,136.1,123,136.1z"/>
		</g>
		<path class="st4" d="M50,121.4c0,2.9,2.4,5.3,5.3,5.3l0,0c2.9,0,5.3-2.4,5.3-5.3V83.3c0-2.9-2.4-5.3-5.3-5.3l0,0
			c-2.9,0-5.3,2.4-5.3,5.3V121.4z"/>
	</g>
</g>
<g id="πœ_xBA_h_x5F_11">
	<g>
		<path class="st4" d="M189,45.5L167.2,18c0,0-0.7-0.7-1.4-0.8c-0.7,0-1.4,0.8-1.4,0.8l-21.8,27.5c0,0-0.8,2.1,1.4,2.2h10v28
			c0,3.5,2.4,6.3,5.4,6.3h12.3c3,0,5.4-2.8,5.4-6.3v-28h10.4C189.8,47.5,189,45.5,189,45.5z"/>
	</g>
</g>
</svg>